<svg id="Layer_1" data-name="Layer 1" xmlns="http://www.w3.org/2000/svg" viewBox="0 0 1280 720"><defs><style>.cls-1{fill:#eff0f2;}.cls-2{fill:#06090a;}.cls-3{fill:#d8283d;}.cls-4{fill:#ffcc48;}.cls-5{fill:#3583c5;}</style></defs><path class="cls-1" d="M87.61,295.88h74.44V147A148.87,148.87,0,0,0,13.18,295.88H87.61Z"/><path class="cls-1" d="M218.2,295.88H162.05V444.76A148.88,148.88,0,0,0,310.92,295.88H218.2Z"/><path class="cls-2" d="M218.2,183.58V158a148.49,148.49,0,0,0-56.15-11v36.57Z"/><path class="cls-1" d="M218.2,158v25.58h41.51A148.68,148.68,0,0,0,218.2,158Z"/><rect class="cls-1" x="162.05" y="183.58" width="56.15" height="56.15"/><path class="cls-2" d="M259.71,183.58H218.2v56.15h56.16V198.22A148.86,148.86,0,0,0,259.71,183.58Z"/><polygon class="cls-2" points="162.05 239.73 162.05 295.88 162.05 295.88 218.2 295.88 218.2 239.73 162.05 239.73"/><rect class="cls-1" x="218.2" y="239.73" width="56.15" height="56.15"/><path class="cls-1" d="M299.93,239.73a148.7,148.7,0,0,0-25.57-41.51v41.51Z"/><path class="cls-2" d="M274.36,239.73v56.15h36.56a148.3,148.3,0,0,0-11-56.15Z"/><path class="cls-3" d="M13.18,295.88V503.71A14.7,14.7,0,0,0,27.89,518.4H62.8V295.88Z"/><path class="cls-4" d="M87.49,295.88H62.8V531a14.7,14.7,0,0,0,14.72,14.69h34.91V295.88Z"/><path class="cls-5" d="M162.05,370.32V295.88H112.43V558.3A14.7,14.7,0,0,0,127.14,573h34.91V444.76h0Z"/><polygon class="cls-5" points="162.05 295.88 162.05 370.32 162.05 444.76 162.05 444.76 162.05 295.88 162.05 295.88"/><path class="cls-1" d="M481.5,320.47a43.42,43.42,0,0,1,16.37,16.46,46,46,0,0,1,6,23.25A46.72,46.72,0,0,1,498,383.35a43.16,43.16,0,0,1-38.4,22.35,42.32,42.32,0,0,1-19.49-4.5,40.53,40.53,0,0,1-14.57-12.37v48a6.16,6.16,0,0,1-6.39,6.39,5.92,5.92,0,0,1-4.5-1.8,6.38,6.38,0,0,1-1.72-4.59V400.13a4.91,4.91,0,0,1-.17-1.47V360.18a46,46,0,0,1,6-23.25,43.37,43.37,0,0,1,16.38-16.46,47.88,47.88,0,0,1,46.34,0Zm-6.23,69.35a31.79,31.79,0,0,0,12-12.2,37.21,37.21,0,0,0,0-34.88,33,33,0,0,0-57.64,0,35.12,35.12,0,0,0-4.34,17.44,36.5,36.5,0,0,0,.16,4.09,1.81,1.81,0,0,1,.17.82,32.86,32.86,0,0,0,10.72,21,31.74,31.74,0,0,0,22,8.19A33.17,33.17,0,0,0,475.27,389.82Z"/><path class="cls-1" d="M578.38,320.14a38.53,38.53,0,0,1,14.49,15.64A48.89,48.89,0,0,1,598,358.54a5.5,5.5,0,0,1-1.63,4.18,6,6,0,0,1-4.26,1.55H526q1.31,13.43,10.48,21.78t22.93,8.35a36.59,36.59,0,0,0,11.87-2,29,29,0,0,0,9.58-5.16,7.17,7.17,0,0,1,4.42-1.64,6.12,6.12,0,0,1,3.6,1.31,5.9,5.9,0,0,1,2.13,4.42,5,5,0,0,1-1.8,3.77,44.63,44.63,0,0,1-13.76,7.61A47.46,47.46,0,0,1,536,399.89a41.55,41.55,0,0,1-16.13-16.21,47.42,47.42,0,0,1-5.81-23.5,50,50,0,0,1,5.48-23.66,40.46,40.46,0,0,1,15.23-16.22,42.52,42.52,0,0,1,22.19-5.81A40.65,40.65,0,0,1,578.38,320.14ZM536.3,333.49q-8.19,7.69-10,20.3h59.93q-1.31-12.6-9.17-20.3t-20.14-7.7Q544.48,325.79,536.3,333.49Z"/><path class="cls-1" d="M700.38,321.53V360a46.17,46.17,0,0,1-6,23.26A43.56,43.56,0,0,1,678,399.72a47.88,47.88,0,0,1-46.34,0,43.46,43.46,0,0,1-16.37-16.45,46.07,46.07,0,0,1-6-23.26,46.75,46.75,0,0,1,5.81-23.17,43.16,43.16,0,0,1,38.4-22.35A42.35,42.35,0,0,1,673,319a40.63,40.63,0,0,1,14.57,12.37v-48A6.16,6.16,0,0,1,694,277a5.94,5.94,0,0,1,4.5,1.8,6.38,6.38,0,0,1,1.72,4.59v36.68A5,5,0,0,1,700.38,321.53Zm-28.65,68.2a32.41,32.41,0,0,0,11.87-12.28A35.17,35.17,0,0,0,687.94,360a39.27,39.27,0,0,0-.16-4.09,1.81,1.81,0,0,1-.17-.82,32.86,32.86,0,0,0-10.72-21,31.76,31.76,0,0,0-22-8.19,33.14,33.14,0,0,0-17,4.43A31.67,31.67,0,0,0,626,342.57a37.21,37.21,0,0,0,0,34.88,32.25,32.25,0,0,0,11.95,12.28,32.62,32.62,0,0,0,17,4.51A32.18,32.18,0,0,0,671.73,389.73Z"/><path class="cls-1" d="M765.52,316.13c2.68,1.2,4,2.89,4,5.08a5.57,5.57,0,0,1-2.21,4.58,7.57,7.57,0,0,1-3.85.82q-1.47,0-5.07-.33a34.67,34.67,0,0,0-3.93-.16q-12.29,0-20.06,6.55a21.19,21.19,0,0,0-7.78,17v49a6.23,6.23,0,1,1-12.44,0V321.53a6.23,6.23,0,1,1,12.44,0v7.21a32.6,32.6,0,0,1,12.12-10.65,34.37,34.37,0,0,1,15.88-3.76Q761.52,314.33,765.52,316.13Z"/><path class="cls-1" d="M792.23,399.8a42.43,42.43,0,0,1-16.29-16.29,46.47,46.47,0,0,1-5.9-23.33,46.94,46.94,0,0,1,5.9-23.42,42.36,42.36,0,0,1,16.29-16.37,48.94,48.94,0,0,1,46.59,0,43,43,0,0,1,16.29,16.37,49,49,0,0,1,.08,46.75A42.43,42.43,0,0,1,838.9,399.8a49.1,49.1,0,0,1-46.67,0Zm40.37-10a31.36,31.36,0,0,0,11.79-12.2,35.82,35.82,0,0,0,4.25-17.44,36.18,36.18,0,0,0-4.25-17.61,31.27,31.27,0,0,0-11.79-12.19,34.79,34.79,0,0,0-34,0,31.69,31.69,0,0,0-12,12.19,37.63,37.63,0,0,0,0,35.05,31.79,31.79,0,0,0,12,12.2,34.86,34.86,0,0,0,34,0Z"/><path class="cls-1" d="M981.9,320.47a43.51,43.51,0,0,1,16.38,16.46,46.1,46.1,0,0,1,6,23.25v38.48a6,6,0,0,1-1.8,4.42,6.21,6.21,0,0,1-4.58,1.8,6.36,6.36,0,0,1-4.59-1.72,5.92,5.92,0,0,1-1.8-4.5v-9.83a40.53,40.53,0,0,1-14.57,12.37,42.35,42.35,0,0,1-19.49,4.5A43.13,43.13,0,0,1,919,383.35a46.62,46.62,0,0,1-5.81-23.17,46.1,46.1,0,0,1,6-23.25,43.51,43.51,0,0,1,16.38-16.46,47.88,47.88,0,0,1,46.34,0Zm-6.3,69.35a32,32,0,0,0,11.87-12.2,37.21,37.21,0,0,0,0-34.88,32.56,32.56,0,0,0-11.87-12.28A32.21,32.21,0,0,0,958.73,326a32.56,32.56,0,0,0-28.9,16.79,37.21,37.21,0,0,0,0,34.88,31.76,31.76,0,0,0,11.95,12.2,33.23,33.23,0,0,0,17,4.42A32.81,32.81,0,0,0,975.6,389.82Zm-24.21-86.55q-.72-4,1.27-6.27l18.42-18.41a6,6,0,0,1,4.39-1.79,6.09,6.09,0,0,1,4.57,1.87,6.49,6.49,0,0,1,1.79,4.65,5.45,5.45,0,0,1-1.79,4.23L961.79,306a5.76,5.76,0,0,1-4.24,1.62C954.74,307.59,952.69,306.16,951.39,303.27Z"/><path class="cls-1" d="M1092.2,321a6.56,6.56,0,0,1-.49,2.29l-35.86,77.29q-2.13,4.26-6.22,4.26-3.93,0-5.9-4.26l-36.35-77.12a5,5,0,0,1-.49-2.29c0-2.3,1.2-4,3.6-5.24a5.18,5.18,0,0,1,2.62-.66,5.84,5.84,0,0,1,3,.82,4.84,4.84,0,0,1,2.05,2.45l31.44,68.12,31.11-68.12a5.14,5.14,0,0,1,2.13-2.53,6.15,6.15,0,0,1,3.28-.9,5.27,5.27,0,0,1,2.62.65A5.46,5.46,0,0,1,1092.2,321Z"/><path class="cls-1" d="M1104.26,295.66a8.82,8.82,0,0,1-2.53-6.39,8.32,8.32,0,0,1,2.62-6.38,9,9,0,0,1,6.38-2.46,8.77,8.77,0,0,1,6.22,2.46,8.32,8.32,0,0,1,2.62,6.38,8.95,8.95,0,0,1-9,9A8.44,8.44,0,0,1,1104.26,295.66Zm1.89,107.42a6.17,6.17,0,0,1-1.8-4.58V321.7a6.16,6.16,0,0,1,6.38-6.39,5.92,5.92,0,0,1,4.5,1.8,6.36,6.36,0,0,1,1.72,4.59v76.8a6.35,6.35,0,0,1-1.72,4.58,5.92,5.92,0,0,1-4.5,1.8A6.19,6.19,0,0,1,1106.15,403.08Z"/><path class="cls-1" d="M1144.24,396.94q-6.3-7.94-6.3-20.39V283.21a6,6,0,0,1,1.8-4.5,6.18,6.18,0,0,1,4.42-1.72,5.9,5.9,0,0,1,6.22,6.22v93.34q0,7.05,2.87,11.46t7.28,4.43h4.1a4.9,4.9,0,0,1,3.93,1.72,6.66,6.66,0,0,1,1.47,4.5,5.58,5.58,0,0,1-2,4.5,8,8,0,0,1-5.33,1.72h-2.13A19.83,19.83,0,0,1,1144.24,396.94Z"/><path class="cls-1" d="M1244.47,320.47a43.42,43.42,0,0,1,16.37,16.46,46,46,0,0,1,6,23.25v38.48a6,6,0,0,1-1.8,4.42,6.21,6.21,0,0,1-4.58,1.8,6.36,6.36,0,0,1-4.59-1.72,5.92,5.92,0,0,1-1.8-4.5v-9.83a40.53,40.53,0,0,1-14.57,12.37,42.38,42.38,0,0,1-19.49,4.5,43.13,43.13,0,0,1-38.4-22.35,46.62,46.62,0,0,1-5.81-23.17,46.1,46.1,0,0,1,6-23.25,43.44,43.44,0,0,1,16.38-16.46,47.88,47.88,0,0,1,46.34,0Zm-6.3,69.35a32,32,0,0,0,11.87-12.2,37.21,37.21,0,0,0,0-34.88,32.56,32.56,0,0,0-11.87-12.28A32.21,32.21,0,0,0,1221.3,326a32.56,32.56,0,0,0-28.9,16.79,37.21,37.21,0,0,0,0,34.88,31.76,31.76,0,0,0,11.95,12.2,33.23,33.23,0,0,0,17,4.42A32.81,32.81,0,0,0,1238.17,389.82Z"/></svg>